<?xml version="1.0" encoding="UTF-8" standalone="no"?>
<!-- Generator: Adobe Illustrator 19.0.0, SVG Export Plug-In . SVG Version: 6.00 Build 0)  -->

<svg
   xmlns:dc="http://purl.org/dc/elements/1.1/"
   xmlns:cc="http://creativecommons.org/ns#"
   xmlns:rdf="http://www.w3.org/1999/02/22-rdf-syntax-ns#"
   xmlns:svg="http://www.w3.org/2000/svg"
   xmlns="http://www.w3.org/2000/svg"
   xmlns:sodipodi="http://sodipodi.sourceforge.net/DTD/sodipodi-0.dtd"
   xmlns:inkscape="http://www.inkscape.org/namespaces/inkscape"
   version="1.1"
   id="Layer_1"
   x="0px"
   y="0px"
   viewBox="0 0 50 50"
   xml:space="preserve"
   sodipodi:docname="favicon.svg"
   width="50"
   height="50"
   inkscape:version="0.92.4 (5da689c313, 2019-01-14)"><metadata
   id="metadata54"><rdf:RDF><cc:Work
       rdf:about=""><dc:format>image/svg+xml</dc:format><dc:type
         rdf:resource="http://purl.org/dc/dcmitype/StillImage" /><dc:title></dc:title></cc:Work></rdf:RDF></metadata><defs
   id="defs52" /><sodipodi:namedview
   pagecolor="#ffffff"
   bordercolor="#666666"
   borderopacity="1"
   objecttolerance="10"
   gridtolerance="10"
   guidetolerance="10"
   inkscape:pageopacity="0"
   inkscape:pageshadow="2"
   inkscape:window-width="1680"
   inkscape:window-height="987"
   id="namedview50"
   showgrid="false"
   inkscape:zoom="0.51304348"
   inkscape:cx="230"
   inkscape:cy="230"
   inkscape:window-x="-8"
   inkscape:window-y="-8"
   inkscape:window-maximized="1"
   inkscape:current-layer="Layer_1" />
<g
   id="XMLID_858_"
   transform="scale(0.10869565)">
	<path
   id="XMLID_62_"
   style="fill:#d93722"
   d="M 230,0 C 102.974,0 0,102.974 0,230 0,334.798 70.094,423.215 165.953,450.953 L 452.614,171.985 C 426.902,73.047 336.984,0 230,0 Z"
   inkscape:connector-curvature="0" />
	<path
   id="XMLID_61_"
   style="fill:#941108"
   d="m 115,400 50.953,50.953 C 186.285,456.836 207.772,460 230,460 c 127.025,0 230,-102.974 230,-230 0,-20.041 -2.569,-39.481 -7.385,-58.015 l -91.8,-91.8 -230.814,139.898 z"
   inkscape:connector-curvature="0" />
	<polygon
   id="XMLID_60_"
   style="fill:#ffffff"
   points="155,327 240,317 240,377 155,367 " />
	<polygon
   id="XMLID_59_"
   style="fill:#f6ebe9"
   points="230,317 305,327 305,367 230,377 " />
	<g
   id="XMLID_56_">
		<polygon
   id="XMLID_860_"
   style="fill:#f7cac9"
   points="233.379,367 135,367 135,281 239.31,281 240,271 115,271 115,400 230,416 " />
	</g>
	<g
   id="XMLID_53_">
		<polygon
   id="XMLID_861_"
   style="fill:#eea0a5"
   points="345,400 345,271 230,271 230,281 325,281 325,367 230,367 230,416 " />
	</g>
	<path
   id="XMLID_52_"
   style="fill:#f6ebe9"
   d="M 230,26 C 127.827,26 45,108.827 45,211 v 50 l 110,30 v 36 h 75 l 10,-148.5 z"
   inkscape:connector-curvature="0" />
	<path
   id="XMLID_51_"
   style="fill:#f7cac9"
   d="m 230,26 v 301 h 75 V 291 L 415,261 V 211 C 415,108.827 332.173,26 230,26 Z"
   inkscape:connector-curvature="0" />
	<path
   id="XMLID_859_"
   style="fill:#bd0a13"
   d="m 100,191 c 0,27.614 22.386,50 50,50 l 10,-50 -10,-50 c -27.614,0 -50,22.386 -50,50 z"
   inkscape:connector-curvature="0" />
	<path
   id="XMLID_862_"
   style="fill:#941108"
   d="m 150,141 v 100 c 27.614,0 50,-22.386 50,-50 0,-27.614 -22.386,-50 -50,-50 z"
   inkscape:connector-curvature="0" />
	<path
   id="XMLID_863_"
   style="fill:#941108"
   d="m 260,191 c 0,27.614 22.386,50 50,50 l 10,-50 -10,-50 c -27.614,0 -50,22.386 -50,50 z"
   inkscape:connector-curvature="0" />
	<path
   id="XMLID_864_"
   style="fill:#5a0a08"
   d="m 310,141 v 100 c 27.614,0 50,-22.386 50,-50 0,-27.614 -22.386,-50 -50,-50 z"
   inkscape:connector-curvature="0" />
	<rect
   id="XMLID_46_"
   x="200"
   y="241"
   style="fill:#941108"
   width="20"
   height="40" />
	<rect
   id="XMLID_45_"
   x="240"
   y="241"
   style="fill:#5a0a08"
   width="20"
   height="40" />
</g>
<g
   id="g19"
   transform="translate(0,-410)">
</g>
<g
   id="g21"
   transform="translate(0,-410)">
</g>
<g
   id="g23"
   transform="translate(0,-410)">
</g>
<g
   id="g25"
   transform="translate(0,-410)">
</g>
<g
   id="g27"
   transform="translate(0,-410)">
</g>
<g
   id="g29"
   transform="translate(0,-410)">
</g>
<g
   id="g31"
   transform="translate(0,-410)">
</g>
<g
   id="g33"
   transform="translate(0,-410)">
</g>
<g
   id="g35"
   transform="translate(0,-410)">
</g>
<g
   id="g37"
   transform="translate(0,-410)">
</g>
<g
   id="g39"
   transform="translate(0,-410)">
</g>
<g
   id="g41"
   transform="translate(0,-410)">
</g>
<g
   id="g43"
   transform="translate(0,-410)">
</g>
<g
   id="g45"
   transform="translate(0,-410)">
</g>
<g
   id="g47"
   transform="translate(0,-410)">
</g>
</svg>